<?xml version="1.0" encoding="utf-8"?>
<!-- Generator: Adobe Illustrator 27.9.0, SVG Export Plug-In . SVG Version: 6.00 Build 0)  -->
<svg version="1.1" id="Capa_1" xmlns="http://www.w3.org/2000/svg" xmlns:xlink="http://www.w3.org/1999/xlink" x="0px" y="0px"
	 viewBox="0 0 1200 1200" style="enable-background:new 0 0 1200 1200;" xml:space="preserve">
<style type="text/css">
	.st0{fill:#020203;}
	.st1{fill:#7B9ED3;}
</style>
<path class="st0" d="M500.17,462.19c55.64,0.04,99.34,48.68,98.65,106.25c-0.7,57.99-45.98,104.52-100.36,103.61
	c-52.13-0.87-97.56-46.25-97.06-105.98C401.88,508.26,446.22,462.1,500.17,462.19z M423.59,567.08
	c-0.01,44.89,34.2,81.37,76.35,81.4c42.35,0.03,76.74-36.41,76.74-81.32c0.01-44.96-34.33-81.41-76.67-81.38
	C457.8,485.8,423.6,522.18,423.59,567.08z"/>
<path class="st1" d="M565.71,565.06c-21.43-11.08-42.47-21.95-63.53-32.83c0.52-1.13,1.28-1.44,1.91-1.9
	c9.64-7.02,19.29-14.03,28.94-21.04c1.96-1.43,1.99-1.45,3.86-0.07c16.21,11.99,25.68,28.39,28.39,49.18
	c0.19,1.47,0.31,2.95,0.43,4.42C565.75,563.37,565.71,563.93,565.71,565.06z"/>
<path class="st1" d="M497.8,601.87c-0.74,0.61-1.07,0.9-1.42,1.16c-9.91,7.25-19.82,14.5-29.74,21.73
	c-1.83,1.33-1.87,1.36-3.63,0.03c-17.62-13.29-27.06-31.44-28.54-54.31c-0.02-0.26,0.09-0.53,0.21-1.16
	C455.68,580.15,476.57,590.92,497.8,601.87z"/>
<path class="st1" d="M470.1,628.87c19.21-14.03,38.23-27.92,57.11-41.71c0.81,0.34,0.73,0.85,0.75,1.29
	c0.56,12.78,1.14,25.56,1.66,38.35c0.11,2.71,0.66,2.52-2.28,3.89c-18.27,8.5-36.53,8.46-54.76-0.13
	C471.81,630.19,470.95,629.94,470.1,628.87z"/>
<path class="st1" d="M529.58,505.17c-18.7,13.98-37.4,27.95-56.33,42.1c-0.75-4.23-0.81-8.1-1.16-11.94
	c-0.79-8.85-1.49-17.72-2.12-26.59c-0.3-4.29-0.77-3.44,2.78-5.11c17.94-8.43,35.96-8.55,54.02-0.36c0.8,0.36,1.57,0.8,2.34,1.23
	C529.25,504.57,529.32,504.77,529.58,505.17z"/>
<path class="st1" d="M464.79,508.75c1.92,24.05,3.83,48.11,5.74,72.03c-0.97,0.71-1.54,0.1-2.12-0.2
	c-10.68-5.48-21.33-10.99-32.03-16.42c-1.4-0.71-1.88-1.54-1.74-3.19c1-11.98,4.71-22.94,10.98-32.92
	c4.45-7.09,10-13.08,16.56-17.98C462.87,509.55,463.48,508.81,464.79,508.75z"/>
<path class="st1" d="M534.83,626.16c-1.08-24.23-2.15-48.16-3.21-72.05c1.09-0.25,1.72,0.35,2.4,0.7
	c9.88,5.08,19.76,10.18,29.64,15.28c2.16,1.12,2.19,1.14,1.92,3.56c-2.26,21.02-11.27,37.9-27.39,50.41
	C537.28,624.76,536.4,625.53,534.83,626.16z"/>
<path class="st0" d="M327.79,677.37c-38.13,20.62-70.56-3-81.93-37.15c-8.84,3.32-19.02,5.32-29.93,5.32
	c-41.1,0-69.43-29.23-69.43-72.88c0-44.05,28.65-72.88,71.41-72.88c18.01,0,39.08,4.15,48.7,9.12l-1.61,38.29h-1.36
	c-5.63-26.38-23.29-37.39-42.31-37.39c-23.29,0-38.81,25.63-38.81,64.07c0,37,14.87,61.67,37.17,61.67
	c13.13,0,21.86-8.55,21.83-21.36v-27.3c0.04-5.85-3.05-9.13-8.34-9.13h-2.58v-2h55v2h-2.47c-5.29,0-8.27,3.27-8.18,9.09v32.38
	c0.13,30.92,20.66,65.16,52.5,56.15L327.79,677.37z"/>
<path class="st0" d="M394.53,596.39l-6.27,46.36h-95.72l0.02-2h2.07c5.73,0,10.38-5.62,10.49-12.59V517.16
	c-0.11-6.97-4.75-12.59-10.49-12.59h-2.07l-0.02-2.01h58.75l-0.02,2.01h-2.07c-5.73,0-10.38,5.61-10.5,12.59v115.45h20.21
	c15.71,0,28.89-13.37,33.98-36.23L394.53,596.39z"/>
<path class="st0" d="M738.64,562.74c6.17,53.59-19.56,83.28-55.21,83.28c-50.29,0-76.65-29.43-76.65-72.08
	c0-45.05,29.47-73.68,76.63-73.68c18.5,0,33.08,4.41,42.17,9.12l-1.61,38.29h-1.36c-6.61-28.98-22.5-37.39-38.38-37.39
	c-26.69,0-41.43,23.63-41.43,61.27c0,37.84,14.9,63.27,43.91,64.49c30.16,0,52.02-25.39,50.58-73.26L738.64,562.74z"/>
<path class="st0" d="M850.44,630.17c3.64,7.78,8.99,11.04,13.7,11.04h1.37v2.01h-62.07v-1.99h1.44c4.23,0,8.96-4.55,6.34-12.56
	l-6.39-18.69h-34.96l-6.57,18.69c-2.88,8.01,2.06,12.56,6.29,12.56h1.44v1.99h-36.56v-2.01h1.47c4.58,0,10.06-3.19,13.59-10.82
	l38.21-102.28c1.92-5.02,8.68-23.11,9.34-29.86h1.47L850.44,630.17z M801.41,599.97l-13.69-40.05l-14.28,40.05H801.41z"/>
<path class="st0" d="M939.07,563.08c12.18,6.85,20.04,19.47,18.89,38.89c-1.64,28.63-20.47,44.05-51.41,44.05
	c-18.99,0-33.08-5.81-38.75-12.94c-3.68-9.78-0.28-29.35,5.17-37.93h1.44c-1.1,21.03,12.65,40.86,35.58,40.86
	c15.72,0,23.09-9.41,23.08-19.72c0.01-8.31-4.9-14.92-17.4-21.98l-26.7-15.08c-15-8.49-22.04-24.1-20.07-43.13
	c2.29-23.23,16.21-35.84,38.15-35.84c5.89,0,18.14,0.9,27.64,2.05h12.74l-3.53,32.58h-1.58c-0.07-14.61-9.89-24.62-26.1-24.62
	c-13.43,0-21.61,7.01-22.27,16.82c-0.65,9.61,6.38,14.21,14.53,18.71L939.07,563.08z"/>
<path class="st0" d="M1057.99,502.86c7.03-0.12,16.27-2.09,19.27-3.64v41.19l-1.65-0.03v-1.56c0.03-15.98-7.77-25.63-21.01-25.95
	h-16.08v115.93c0.17,6.9,4.8,12.43,10.48,12.43h2.07l0.03,2h-58.77l0.03-2h2.07c5.64,0,10.23-5.44,10.48-12.27V512.86h-16.11
	c-13.24,0.33-21.04,9.98-21.01,25.95v1.56l-1.65,0.03v-41.19c3,1.55,12.24,3.51,19.27,3.64H1057.99z"/>
</svg>
