<svg id="er2x65hXBbV1" xmlns="http://www.w3.org/2000/svg" xmlns:xlink="http://www.w3.org/1999/xlink" viewBox="0 0 300 300" shape-rendering="geometricPrecision" text-rendering="geometricPrecision"><defs><filter id="er2x65hXBbV3-filter" x="-150%" width="400%" y="-150%" height="400%"><feGaussianBlur id="er2x65hXBbV3-filter-drop-shadow-0-blur" in="SourceAlpha" stdDeviation="1,1"/><feOffset id="er2x65hXBbV3-filter-drop-shadow-0-offset" dx="0" dy="0" result="tmp"/><feFlood id="er2x65hXBbV3-filter-drop-shadow-0-flood" flood-color="#303030"/><feComposite id="er2x65hXBbV3-filter-drop-shadow-0-composite" operator="in" in2="tmp"/><feMerge id="er2x65hXBbV3-filter-drop-shadow-0-merge" result="result"><feMergeNode id="er2x65hXBbV3-filter-drop-shadow-0-merge-node-1"/><feMergeNode id="er2x65hXBbV3-filter-drop-shadow-0-merge-node-2" in="SourceGraphic"/></feMerge></filter></defs><g transform="matrix(9 0 0 9-2276.865462-14.700171)"><path d="M259.896705,28.932746c0-.858112-.192163-20.657519-.192163-22.098735s7.110028-6.834012,8.455169-6.834012s8.647331,5.296714,8.647331,6.834012s0,21.394141,0,22.098735-16.910337.858112-16.910337,0Z" transform="translate(1.395942 3.539935)" filter="url(#er2x65hXBbV3-filter)" fill="#ea0404" stroke="#fff" stroke-width="0.6"/><path d="M259.896705,28.932746c0-.858112-.192163-20.657519-.192163-22.098735s7.110028-6.834012,8.455169-6.834012s8.647331,5.296714,8.647331,6.834012s0,21.394141,0,22.098735-16.910337.858112-16.910337,0Z" transform="matrix(.9 0 0 0.9 28.221522 5.053106)" fill="none" stroke="#fff" stroke-width="0.2"/><ellipse style="isolation:isolate" rx="0.855948" ry="0.752626" transform="translate(269.651734 5.015933)" opacity="0.86" paint-order="markers fill stroke" fill-rule="evenodd" stroke-width="0"/></g><text dx="0" dy="0" font-family="&quot;er2x65hXBbV1:::Roboto&quot;" font-size="11" font-weight="700" transform="matrix(3.508946 0 0 3.721246 103.821183 130.517401)" fill="#fff" stroke-width="0"><tspan y="0" font-weight="700" stroke-width="0"><![CDATA[
SALE 
]]></tspan></text><text dx="0" dy="0" font-family="&quot;er2x65hXBbV1:::Roboto&quot;" font-size="7" font-weight="700" transform="matrix(3.508946 0 0 3.721246 102.072945 237.208303)" fill="#fff" stroke-width="0"><tspan y="0" font-weight="700" stroke-width="0"><![CDATA[
discount 
]]></tspan></text><text dx="0" dy="0" font-family="&quot;er2x65hXBbV1:::Roboto&quot;" font-size="20" font-weight="700" transform="matrix(3.508946 0 0 3.721246 83.840023 196.090907)" fill="#fff" stroke-width="0"><tspan y="0" font-weight="700" stroke-width="0"><![CDATA[
20% 
]]></tspan></text>
<style><![CDATA[
@font-face {font-family: 'er2x65hXBbV1:::Roboto';font-style: normal;font-weight: 700;src: url(https://fonts.gstatic.com/l/font?kit=KFOlCnqEu92Fr1MmWUlvAwUtCuTCp8kLNyjXZTBxDEesLw&skey=c06e7213f788649e&v=v30) format('truetype');}
]]></style>
</svg>
